name rise36.2859peak64.2979fall75.1499.mot
datacolumns 19
datarows 23
range 24.31990600000000 24.35657400000000
endheader
time	ground_force1_vx	ground_force1_vy	ground_force1_vz	ground_force1_px	ground_force1_py	ground_force1_pz	ground_force2_vx	ground_force2_vy	ground_force2_vz	ground_force2_px	ground_force2_py	ground_force2_pz	ground_torque1_x	ground_torque1_y	ground_torque1_z	ground_torque2_x	ground_torque2_y	ground_torque2_z	
24.31990600000000	-46.73164100000000	802.52904500000000	59.81792100000000	0.16831500000000	0.00000000000000	0.11757700000000	-2.88609500000000	21.71941000000000	3.66619200000000	0.00000000000000	0.00000000000000	0.00000000000000	0.00000000000000	31.26899000000000	0.00000000000000	0.00000000000000	1.74381100000000	0.00000000000000	
24.32157500000000	-47.15559400000000	801.35158400000000	59.65890200000000	0.16744700000000	0.00000000000000	0.11746400000000	-3.47010500000000	27.61963700000000	4.52964500000000	0.35958900000000	0.00000000000000	-0.08355000000000	0.00000000000000	31.17707100000000	0.00000000000000	0.00000000000000	3.49055700000000	0.00000000000000	
24.32324500000000	-47.59060800000000	800.06979400000000	59.48098400000000	0.16657300000000	0.00000000000000	0.11734900000000	-4.02928500000000	33.87451500000000	5.40477300000000	0.36307200000000	0.00000000000000	-0.08447800000000	0.00000000000000	31.08186800000000	0.00000000000000	0.00000000000000	4.18690100000000	0.00000000000000	
24.32490700000000	-48.03683900000000	798.68074200000001	59.28383000000000	0.16569500000000	0.00000000000000	0.11723100000000	-4.53980700000000	40.35424900000000	6.26502800000000	0.36633800000000	0.00000000000000	-0.08531200000000	0.00000000000000	30.98349400000000	0.00000000000000	0.00000000000000	4.87921500000000	0.00000000000000	
24.32657500000000	-48.49438000000000	797.18147799999997	59.06712400000000	0.16481500000000	0.00000000000000	0.11711100000000	-4.98006200000000	46.93279000000000	7.08558400000000	0.36943200000000	0.00000000000000	-0.08606800000000	0.00000000000000	30.88205700000000	0.00000000000000	0.00000000000000	5.54865000000000	0.00000000000000	
24.32824500000000	-48.96326200000000	795.56904199999997	58.83057900000000	0.16393400000000	0.00000000000000	0.11698700000000	-5.33200700000000	53.49723800000000	7.84498700000000	0.37239200000000	0.00000000000000	-0.08675400000000	0.00000000000000	30.77766100000000	0.00000000000000	0.00000000000000	6.17881800000000	0.00000000000000	
24.32990800000000	-49.44345200000000	793.84046499999999	58.57393800000000	0.16305300000000	0.00000000000000	0.11686000000000	-5.58207400000000	59.95504600000000	8.52634700000000	0.37524400000000	0.00000000000000	-0.08738100000000	0.00000000000000	30.67040000000000	0.00000000000000	0.00000000000000	6.75673900000000	0.00000000000000	
24.33157300000000	-49.93485300000000	791.99277900000004	58.29696900000000	0.16217400000000	0.00000000000000	0.11673000000000	-5.72159100000000	66.23854000000000	9.11798700000000	0.37801300000000	0.00000000000000	-0.08795600000000	0.00000000000000	30.56036600000000	0.00000000000000	0.00000000000000	7.27337900000000	0.00000000000000	
24.33324500000000	-50.43730000000000	790.02302099999997	57.99947300000000	0.16129900000000	0.00000000000000	0.11659600000000	-5.74674400000000	72.30669399999999	9.61356700000000	0.38071400000000	0.00000000000000	-0.08848400000000	0.00000000000000	30.44763800000000	0.00000000000000	0.00000000000000	7.72378300000000	0.00000000000000	
24.33491500000000	-50.95055900000000	787.92823799999996	57.68128100000000	0.16042900000000	0.00000000000000	0.11645900000000	-5.65814900000000	78.14442500000000	10.01175400000000	0.38336200000000	0.00000000000000	-0.08897100000000	0.00000000000000	30.33228700000000	0.00000000000000	0.00000000000000	8.10685500000000	0.00000000000000	
24.33657100000000	-51.47433100000000	785.70549400000004	57.34225500000000	0.15956500000000	0.00000000000000	0.11631800000000	-5.46014200000000	83.75988000000000	10.31553100000000	0.38596600000000	0.00000000000000	-0.08942300000000	0.00000000000000	30.21437500000000	0.00000000000000	0.00000000000000	8.42485700000000	0.00000000000000	
24.33824300000000	-52.00824500000000	783.35187900000005	56.98229100000000	0.15871000000000	0.00000000000000	0.11617400000000	-5.15988100000000	89.18028300000000	10.53128000000000	0.38853400000000	0.00000000000000	-0.08984200000000	0.00000000000000	30.09395200000000	0.00000000000000	0.00000000000000	8.68271500000000	0.00000000000000	
24.33991000000000	-52.55186200000000	780.86450900000000	56.60131700000000	0.15786300000000	0.00000000000000	0.11602600000000	-4.76638500000000	94.44694200000001	10.66773900000000	0.39107200000000	0.00000000000000	-0.09023200000000	0.00000000000000	29.97105400000000	0.00000000000000	0.00000000000000	8.88722500000000	0.00000000000000	
24.34157200000000	-53.10466900000000	778.24054200000000	56.19929600000000	0.15702800000000	0.00000000000000	0.11587400000000	-4.28958100000000	99.60996500000000	10.73494900000000	0.39358400000000	0.00000000000000	-0.09059700000000	0.00000000000000	29.84570800000000	0.00000000000000	0.00000000000000	9.04623700000000	0.00000000000000	
24.34323700000000	-53.66608600000000	775.47717699999998	55.77622400000000	0.15620500000000	0.00000000000000	0.11571900000000	-3.73945300000000	104.72318600000000	10.74328200000000	0.39607300000000	0.00000000000000	-0.09093800000000	0.00000000000000	29.71792500000000	0.00000000000000	0.00000000000000	9.16789500000000	0.00000000000000	
24.34490800000000	-54.23546100000000	772.57166700000005	55.33213400000000	0.15539500000000	0.00000000000000	0.11555900000000	-3.12533300000000	109.83964300000000	10.70260400000000	0.39853900000000	0.00000000000000	-0.09125900000000	0.00000000000000	29.58770200000000	0.00000000000000	0.00000000000000	9.25997400000000	0.00000000000000	
24.34657100000000	-54.81206900000000	769.52131999999995	54.86709200000000	0.15460000000000	0.00000000000000	0.11539600000000	-2.45536800000000	115.00789600000000	10.62162500000000	0.40098300000000	0.00000000000000	-0.09156100000000	0.00000000000000	29.45502300000000	0.00000000000000	0.00000000000000	9.32935000000000	0.00000000000000	
24.34824200000000	-55.39511500000000	766.32351500000004	54.38120100000000	0.15382000000000	0.00000000000000	0.11522800000000	-1.73617900000000	120.26929500000000	10.50744900000000	0.40340400000000	0.00000000000000	-0.09184600000000	0.00000000000000	29.31985700000000	0.00000000000000	0.00000000000000	9.38163900000000	0.00000000000000	
24.34990900000000	-55.98373300000000	762.97569999999996	53.87460100000000	0.15305800000000	0.00000000000000	0.11505700000000	-0.97269400000000	125.65626800000000	10.36532700000000	0.40580200000000	0.00000000000000	-0.09211600000000	0.00000000000000	29.18215700000000	0.00000000000000	0.00000000000000	9.42097300000000	0.00000000000000	
24.35157200000000	-56.57698700000000	759.47540600000002	53.34746600000000	0.15231200000000	0.00000000000000	0.11488100000000	-0.16814500000000	131.19154900000001	10.19858800000000	0.40817600000000	0.00000000000000	-0.09237300000000	0.00000000000000	29.04186200000000	0.00000000000000	0.00000000000000	9.44993700000000	0.00000000000000	
24.35324400000000	-57.17386900000000	755.82025099999998	52.80000700000000	0.15158600000000	0.00000000000000	0.11470200000000	0.67579800000000	136.88824800000000	10.00873600000000	0.41052200000000	0.00000000000000	-0.09261700000000	0.00000000000000	28.89889500000000	0.00000000000000	0.00000000000000	9.46962400000000	0.00000000000000	
24.35490900000000	-57.77330300000000	752.00794800000006	52.23247100000000	0.15087800000000	0.00000000000000	0.11451900000000	1.55880000000000	142.75060800000000	9.79565500000000	0.41283800000000	0.00000000000000	-0.09285000000000	0.00000000000000	28.75316500000000	0.00000000000000	0.00000000000000	9.47978800000000	0.00000000000000	
24.35657400000000	-58.37414400000000	748.03631399999995	51.64514300000000	0.15019000000000	0.00000000000000	0.11433100000000	2.48156800000000	148.77525000000000	9.55791400000000	0.41512200000000	0.00000000000000	-0.09307400000000	0.00000000000000	28.60456500000000	0.00000000000000	0.00000000000000	9.47907600000000	0.00000000000000	
